<?xml version="1.0" standalone="no"?>
<!DOCTYPE svg PUBLIC "-//W3C//DTD SVG 20010904//EN"
 "http://www.w3.org/TR/2001/REC-SVG-20010904/DTD/svg10.dtd">
<svg version="1.0" xmlns="http://www.w3.org/2000/svg"
 width="260.000000pt" height="260.000000pt" viewBox="0 0 260.000000 260.000000"
 preserveAspectRatio="xMidYMid meet">
<metadata>
Created by potrace 1.14, written by Peter Selinger 2001-2017
</metadata>
<g transform="translate(0.000000,260.000000) scale(0.100000,-0.100000)"
fill="#000000" stroke="none">
<path d="M1292 2528 c-27 -27 -13 -60 49 -118 l62 -58 -18 -46 c-10 -25 -21
-46 -24 -46 -4 0 -19 25 -34 56 -31 63 -27 64 -108 -13 -44 -43 -47 -44 -124
-48 -44 -2 -91 -7 -105 -9 -14 -3 -38 -8 -55 -11 -16 -3 -34 -7 -40 -9 -5 -1
-28 -6 -50 -11 -22 -4 -80 -18 -130 -32 -49 -13 -97 -26 -105 -28 -99 -25
-200 -75 -235 -117 -42 -50 -113 -203 -206 -448 -5 -14 -20 -30 -32 -35 -17
-8 -26 -27 -39 -80 -24 -95 -27 -118 -16 -132 9 -11 11 -21 23 -104 7 -54 27
-76 73 -81 31 -3 36 -8 71 -88 l37 -85 41 -3 c31 -2 42 -8 46 -23 7 -25 0 -28
-53 -23 -25 3 -83 8 -130 12 -72 6 -91 11 -122 36 -54 41 -87 20 -57 -35 13
-26 96 -79 123 -79 12 -1 41 -21 66 -45 42 -42 49 -45 98 -45 l52 0 -25 -50
c-101 -200 -73 -492 62 -627 54 -55 105 -76 164 -70 83 10 152 69 201 173 12
27 24 51 26 54 2 2 56 5 121 5 l117 0 2 -39 c1 -44 26 -85 59 -97 29 -11 69
21 78 62 5 21 10 27 18 20 19 -14 83 -29 187 -42 111 -14 99 -13 174 -5 87 10
126 17 153 27 38 14 51 11 65 -18 28 -60 94 -60 119 -1 28 69 15 140 -33 178
-16 12 -25 27 -21 35 8 24 -14 42 -67 56 -27 7 -46 17 -43 22 13 21 13 76 0
115 -21 60 -3 72 39 26 29 -31 35 -34 53 -22 30 19 42 55 50 161 1 4 6 7 12 7
7 0 8 -14 3 -42 -8 -47 -8 -160 0 -223 18 -140 80 -280 158 -358 66 -66 117
-91 190 -93 147 -6 285 136 344 356 23 86 27 282 8 376 -34 164 -101 280 -207
359 -25 18 -37 35 -36 49 4 55 3 55 -75 58 l-74 3 15 37 15 37 86 0 c58 0 88
4 94 13 12 20 9 76 -4 85 -7 4 -58 8 -113 9 -55 1 -105 3 -111 3 -7 1 -10 44
-10 126 0 135 -3 128 61 139 83 15 101 37 148 181 40 121 127 480 126 517 0
42 -22 144 -32 154 -4 5 -22 0 -40 -9 -35 -19 -91 -101 -123 -180 l-19 -48
-135 2 c-143 3 -137 4 -131 -41 0 -5 13 -10 28 -10 38 0 121 -59 167 -120 32
-42 39 -59 40 -103 3 -69 -10 -97 -43 -97 -14 0 -75 16 -134 35 -91 29 -122
35 -198 35 -178 0 -217 -26 -185 -125 9 -30 21 -57 27 -60 5 -4 20 -27 33 -53
31 -62 55 -82 102 -87 22 -2 42 -4 45 -4 3 -1 5 -57 6 -126 0 -99 -2 -125 -13
-126 -8 -1 -19 -2 -25 -3 -6 0 -17 -10 -25 -21 -10 -14 -26 -20 -51 -20 l-37
0 -39 -145 c-22 -80 -41 -147 -44 -150 -8 -9 -493 -7 -493 2 0 4 4 16 9 26 6
9 26 67 46 129 34 104 38 111 60 108 30 -3 41 9 64 72 134 354 187 488 211
536 39 77 38 99 -6 140 -38 35 -40 59 -8 102 15 20 16 19 50 -18 40 -43 67
-45 72 -5 3 29 -1 35 -219 243 -135 129 -133 127 -147 113z m-901 -1701 l-24
-22 19 27 c10 14 21 24 23 22 3 -3 -6 -15 -18 -27z m1170 -147 c10 -38 13 -69
8 -74 -5 -6 -9 -18 -9 -27 0 -10 -6 -21 -12 -25 -7 -4 -10 -4 -6 1 4 4 3 15
-2 25 -5 9 -12 30 -14 46 -3 16 -10 45 -16 64 -15 52 -13 62 12 58 18 -2 25
-15 39 -68z"/>
</g>
</svg>
