<svg width="128" height="119" viewBox="0 0 128 119" fill="none" xmlns="http://www.w3.org/2000/svg">
<g id="Environment / Water_Drop">
<g id="Vector">
<path d="M64 9.91667C64 9.91667 101.333 35.2805 101.333 67.891C101.333 77.5009 97.3998 86.7159 90.3984 93.5111C83.3971 100.306 73.9018 104.122 64.0004 104.122C54.099 104.122 44.6027 100.308 37.6014 93.5131C30.6 86.7179 26.6667 77.5009 26.6667 67.891C26.6667 35.2805 64 9.91667 64 9.91667Z" fill="#EAE0CC"/>
<path d="M85.3341 66.3661C85.3341 72.4355 82.8056 78.2563 78.3047 82.548C75.7495 84.9845 72.6766 86.8159 69.3333 87.943M101.333 67.891C101.333 35.2805 64 9.91667 64 9.91667C64 9.91667 26.6667 35.2805 26.6667 67.891C26.6667 77.5009 30.6 86.7179 37.6014 93.5131C44.6027 100.308 54.099 104.122 64.0004 104.122C73.9018 104.122 83.3971 100.306 90.3984 93.5111C97.3998 86.7159 101.333 77.5009 101.333 67.891Z" stroke="#1D712F" stroke-width="4" stroke-linecap="round" stroke-linejoin="round"/>
</g>
</g>
</svg>
